<svg width="80" height="80" fill="none" xmlns="http://www.w3.org/2000/svg"><circle cx="40" cy="40" r="40" fill="#5181B8"/><path d="M53.852 41.762c-.679-.84-.484-1.213 0-1.964.01-.009 5.615-7.596 6.192-10.17l.004-.001c.287-.938 0-1.627-1.388-1.627h-4.592c-1.17 0-1.708.591-1.997 1.253 0 0-2.338 5.482-5.646 9.036-1.067 1.027-1.56 1.356-2.144 1.356-.287 0-.733-.329-.733-1.267v-8.751c0-1.125-.327-1.627-1.295-1.627h-7.22c-.734 0-1.17.525-1.17 1.013 0 1.066 1.654 1.312 1.826 4.312v6.509c0 1.426-.265 1.688-.851 1.688-1.561 0-5.35-5.504-7.595-11.804-.453-1.223-.896-1.716-2.074-1.716h-4.594c-1.31 0-1.575.591-1.575 1.253 0 1.169 1.561 6.982 7.26 14.662C30.056 49.16 35.404 52 40.27 52c2.925 0 3.282-.63 3.282-1.716 0-5.01-.265-5.482 1.2-5.482.68 0 1.848.329 4.578 2.857C52.45 50.658 52.963 52 54.71 52h4.592c1.31 0 1.973-.63 1.591-1.875-.873-2.618-6.775-8.003-7.04-8.363Z" fill="#fff"/></svg>