<svg width="80" height="80" viewBox="0 0 80 80" fill="none" xmlns="http://www.w3.org/2000/svg">
<circle cx="40" cy="40" r="40" fill="#5181B8"/>
<path d="M53.8525 41.7623C53.1734 40.9223 53.3677 40.5486 53.8525 39.7977C53.8612 39.7891 59.4667 32.2017 60.0442 29.6286L60.0477 29.6269C60.3347 28.6891 60.0477 28 58.6599 28H54.0677C52.8987 28 52.3597 28.5914 52.0709 29.2531C52.0709 29.2531 49.7328 34.7354 46.4252 38.2891C45.3577 39.316 44.8641 39.6451 44.2814 39.6451C43.9944 39.6451 43.5481 39.316 43.5481 38.3783V29.6269C43.5481 28.5023 43.2208 28 42.2531 28H35.0323C34.299 28 33.8633 28.5246 33.8633 29.0131C33.8633 30.0794 35.5171 30.3246 35.6886 33.3246V39.8337C35.6886 41.26 35.4243 41.5223 34.838 41.5223C33.277 41.5223 29.4881 36.0177 27.2428 29.7177C26.7895 28.4954 26.3468 28.0017 25.169 28.0017H20.5751C19.2643 28.0017 19 28.5931 19 29.2549C19 30.424 20.5611 36.2371 26.2593 43.9171C30.0569 49.1594 35.4051 52 40.2702 52C43.1946 52 43.5516 51.3691 43.5516 50.284C43.5516 45.2749 43.2873 44.8017 44.7521 44.8017C45.4312 44.8017 46.6002 45.1309 49.3303 47.6594C52.4507 50.6577 52.9634 52 54.71 52H59.3021C60.6112 52 61.2745 51.3691 60.893 50.1246C60.0197 47.5069 54.1185 42.1223 53.8525 41.7623Z" fill="white"/>
</svg>
